<svg width="254" height="61" viewBox="0 0 254 61" fill="none" xmlns="http://www.w3.org/2000/svg">
<path d="M103.016 33.8406H106.57V46.5196C104.938 47.8794 103.001 48.9281 100.758 49.6514C98.5238 50.3819 96.1671 50.7435 93.6961 50.7435C90.1879 50.7435 87.0381 50.013 84.2315 48.5592C81.4249 47.1055 79.2208 45.0875 77.6192 42.5054C76.0176 39.9233 75.2168 37.0375 75.2168 33.8406C75.2168 30.6437 76.0176 27.7578 77.6192 25.1757C79.2208 22.5936 81.4249 20.5757 84.2315 19.1219C87.0381 17.6681 90.2031 16.9376 93.7495 16.9376C96.4188 16.9376 98.8746 17.3426 101.109 18.1455C103.344 18.9483 105.235 20.149 106.768 21.7329L104.465 23.9679C101.696 21.3713 98.1729 20.0766 93.8944 20.0766C91.0573 20.0766 88.4947 20.6697 86.2068 21.8559C83.9188 23.0421 82.1265 24.6911 80.8224 26.7959C79.5182 28.9006 78.8699 31.2512 78.8699 33.8478C78.8699 36.4444 79.5182 38.7878 80.8224 40.878C82.1265 42.9683 83.9111 44.6174 86.1839 45.818C88.4566 47.0187 91.0039 47.619 93.8486 47.619C97.456 47.619 100.507 46.7655 103.016 45.0513V33.8406Z" fill="#263671"/>
<path d="M120.542 47.0482C118.002 44.5819 116.736 40.9872 116.736 36.2714V17.2203H120.443V36.1195C120.443 39.9818 121.358 42.8605 123.196 44.7627C125.034 46.6649 127.688 47.6124 131.158 47.6124C134.667 47.6124 137.336 46.6649 139.174 44.7627C141.012 42.8605 141.927 39.9818 141.927 36.1195V17.2203H145.534V36.2642C145.534 40.9799 144.276 44.5746 141.752 47.041C139.227 49.5074 135.704 50.7442 131.158 50.7442C126.62 50.7514 123.082 49.5146 120.542 47.0482Z" fill="#263671"/>
<path d="M180.639 50.4621L172.624 39.7793C171.724 39.8733 170.786 39.924 169.817 39.924H160.406V50.4693H156.699V17.2203H169.817C174.294 17.2203 177.794 18.2329 180.334 20.2581C182.874 22.2833 184.14 25.0679 184.14 28.6192C184.14 31.2157 183.446 33.4072 182.065 35.1937C180.677 36.9802 178.702 38.2749 176.132 39.0633L184.697 50.4621H180.639ZM177.68 34.7453C179.518 33.2915 180.433 31.2447 180.433 28.6192C180.433 25.9286 179.518 23.86 177.68 22.4207C175.842 20.9814 173.188 20.2581 169.718 20.2581H160.406V36.9296H169.718C173.196 36.9296 175.85 36.1991 177.68 34.7453Z" fill="#263671"/>
<path d="M218.193 47.4243V50.4621H189.448V48.0391L212.687 20.2581H189.799V17.2203H217.591V19.6433L194.406 47.4243H218.193Z" fill="#263671"/>
<path d="M229.008 47.0482C226.468 44.5819 225.202 40.9872 225.202 36.2714V17.2203H228.909V36.1195C228.909 39.9818 229.824 42.8605 231.662 44.7627C233.5 46.6649 236.154 47.6124 239.624 47.6124C243.132 47.6124 245.802 46.6649 247.64 44.7627C249.478 42.8605 250.393 39.9818 250.393 36.1195V17.2203H254V36.2642C254 40.9799 252.742 44.5746 250.218 47.041C247.693 49.5074 244.17 50.7442 239.624 50.7442C235.086 50.7514 231.548 49.5146 229.008 47.0482Z" fill="#263671"/>
<path d="M46.0428 60.8343C41.1835 60.8343 35.1339 56.7606 30.9189 53.3404C30.0777 52.6615 29.4244 52.0928 29.0217 51.7449C28.5474 51.329 28.2521 51.0574 28.1895 50.998L27.5899 50.4379C27.0261 49.9372 26.4176 49.4195 25.7822 48.9103C20.726 44.8111 16.1709 42.3584 13.5936 42.3584C8.46579 42.3584 4.28659 45.7277 4.28659 49.8608C4.28659 54.0024 8.45684 57.3717 13.5936 57.3717C16.162 57.3717 20.717 54.9275 25.7822 50.8198L26.0864 50.5737L27.2856 51.6855C27.5004 51.8892 27.8226 52.1862 28.2432 52.5511L28.9412 53.1622L28.7264 53.3319C24.5114 56.7521 18.4619 60.8258 13.6025 60.8258C6.09429 60.8343 0 55.9119 0 49.8608C0 43.8096 6.09429 38.8957 13.5936 38.8957C18.444 38.8957 24.5025 42.9694 28.7175 46.3897C29.5497 47.0686 30.212 47.6287 30.6147 47.9852C31.08 48.3926 31.3753 48.6641 31.4469 48.732L32.0555 49.3007C32.5745 49.7674 33.2099 50.2936 33.8632 50.8283C38.9194 54.9275 43.4744 57.3802 46.0517 57.3802C51.1795 57.3802 55.3498 54.0109 55.3498 49.8693C55.3498 45.7277 51.1795 42.3669 46.0517 42.3669C43.4834 42.3669 38.9194 44.8111 33.8632 48.9187L33.5052 49.2073L32.315 48.087C32.1002 47.8834 31.778 47.5863 31.3574 47.2214L30.6594 46.6103L30.9279 46.3897C35.1518 42.9694 41.2014 38.8957 46.0517 38.8957C53.5421 38.8957 59.6453 43.8181 59.6453 49.8608C59.6453 55.9035 53.5331 60.8343 46.0428 60.8343Z" fill="#2D8BCA"/>
<path d="M29.8185 11.7887C32.9619 11.7887 35.5101 9.37205 35.5101 6.391C35.5101 3.40996 32.9619 0.993351 29.8185 0.993351C26.6752 0.993351 24.127 3.40996 24.127 6.391C24.127 9.37205 26.6752 11.7887 29.8185 11.7887Z" fill="#2D8BCA"/>
<path opacity="0.94" d="M29.8092 39.4898C27.2498 37.4615 18.8287 30.5447 17.0121 25.8939C16.681 25.0367 16.5109 24.154 16.5199 23.2799C16.5199 22.8046 16.5646 22.3379 16.6631 21.8796H16.6809C17.1195 19.8427 18.5245 17.8228 20.5469 16.1934C20.1353 17.6955 19.9205 19.308 19.9205 20.9715C19.9205 28.2956 28.7621 34.0243 29.138 34.2704L29.8181 34.7032L30.4983 34.2704C30.8741 34.0328 39.7158 28.3296 39.7158 20.9715C39.7158 19.308 39.501 17.704 39.0893 16.1934C41.1118 17.8228 42.5168 19.8427 42.9553 21.8796H42.9732C43.0716 22.3379 43.1164 22.8046 43.1164 23.2629C43.1253 24.154 42.9553 25.0282 42.6242 25.8854C40.8165 30.5362 32.4134 37.436 29.836 39.4729L29.8271 39.4644L29.8092 39.4898Z" fill="#2D8BCA"/>
</svg>
